<?xml version="1.0" encoding="utf-8"?>
<!-- Generator: Adobe Illustrator 19.0.0, SVG Export Plug-In . SVG Version: 6.00 Build 0)  -->
<svg version="1.1" id="Layer_1" xmlns="http://www.w3.org/2000/svg" xmlns:xlink="http://www.w3.org/1999/xlink" x="0px" y="0px"
	 viewBox="0 0 512 512" style="enable-background:new 0 0 512 512;" xml:space="preserve">
<g id="XMLID_1_">
	<path id="XMLID_5_" d="M255.9,91.4c-92.1,0-164.6,57.5-251.2,152c-6.3,7.1-6.3,17.3,0,24.4c74,81.9,139.4,152.8,251.2,152.8
		c110.3,0,192.9-89,251.2-152.8c6.3-6.3,6.3-16.5,0.8-23.6C448.1,170.9,364.6,91.4,255.9,91.4z M260.7,358.4
		c-60.6,2.4-110.3-47.3-107.9-107.9c2.4-52.8,44.9-95.3,97.7-97.7c60.6-2.4,110.3,47.3,107.9,107.9C356,313.5,313.4,356,260.7,358.4
		L260.7,358.4z"/>
	<path id="XMLID_6_" d="M255.9,202.4c0-7.1,1.6-13.4,3.2-19.7c-0.8,0-2.4,0-3.2,0c-42.5,0-76.4,36.2-73.2,78.8
		c2.4,35.4,31.5,64.6,66.9,66.9c42.5,3.2,78.8-30.7,78.8-73.2c0-1.6,0-3.2,0-4.7c-6.3,3.2-13.4,4.7-20.5,4.7
		C279.6,256,255.9,231.6,255.9,202.4L255.9,202.4z"/>
</g>
</svg>
